<svg xmlns="http://www.w3.org/2000/svg" viewBox="0 0 600 360">
<defs><linearGradient id="s" x1="0" y1="0" x2="1" y2="1"><stop stop-color="#342063"/><stop offset=".5" stop-color="#7a3db6"/><stop offset="1" stop-color="#1f9db8"/></linearGradient></defs>
<rect width="600" height="360" rx="30" fill="url(#s)"/><g fill="#fff" opacity=".7"><circle cx="80" cy="70" r="3"/><circle cx="140" cy="110" r="5"/><circle cx="510" cy="82" r="4"/><circle cx="460" cy="42" r="3"/></g><path d="M45 265c80-120 170-140 260-70 83 65 158 50 250-63" fill="none" stroke="#ff7ba8" stroke-width="18"/><path d="M45 283c83-115 171-128 258-60 84 65 160 50 252-62" fill="none" stroke="#ffd36c" stroke-width="18"/><path d="M45 301c86-110 174-116 256-50 87 69 166 51 254-60" fill="none" stroke="#73e0e5" stroke-width="18"/><text x="40" y="70" font-family="Arial, sans-serif" font-size="44" font-weight="700" fill="#fff">RAINBOW ROAD</text></svg>
